# xmcd
#
# Track frame offsets:
#  183
#  11223
#  24393
#  35690
#  49458
#  59425
#  72038
#  85678
#  99585
#  112235
#  128733
#  137538
#  147540
#  161545
#  171608
#  183493
#
# Disc length: 2609 seconds
#
# Revision: 3
# Processed by: cddbd v1.5.2PL0 Copyright (c) Steve Scherf et al.
# Submitted via: Collectorz.com_Music_Collector 7.0
#
DISCID=ec0a2f10
DTITLE=Diverse Artiesten - Kings Of The Blues [CD1)
DYEAR=1900
DGENRE=General Blues
TTITLE0=Domino, Fats - Blue Monday
TTITLE1=Wolf, Howlin' - Howlin' For My Baby
TTITLE2=Dorsey, Lee - Holy Cow
TTITLE3=James, Elmore - It Hurts Me Too
TTITLE4=Hooker, John Lee - Dimples
TTITLE5=Reed, Jimmy - Shame, Shame, Shame
TTITLE6=Cotton, James - Cotton Crop Blues
TTITLE7=Hornton, Walter - West Winds Are Blowing
TTITLE8=Dorsey, Lee - Working In A Coal Mine
TTITLE9=King, Albert - Get Out Of My Life Woman
TTITLE10=Taylor, Eddie - I'm Gonna Love You
TTITLE11=Arnold, Billy Boy - I Ain'T Got You
TTITLE12=Memphis, Slim - Messin' Around
TTITLE13=Rush, Otis - I Can'T Stop
TTITLE14=Guy, Buddy - Ten Years Ago
TTITLE15=Rogers, Jimmy - Chicago Bound
EXTD=
EXTT0=
EXTT1=
EXTT2=
EXTT3=
EXTT4=
EXTT5=
EXTT6=
EXTT7=
EXTT8=
EXTT9=
EXTT10=
EXTT11=
EXTT12=
EXTT13=
EXTT14=
EXTT15=
PLAYORDER=
